<?xml version="1.0" standalone="no"?>
<svg xmlns:xlink="http://www.w3.org/1999/xlink" id="wave" style="transform:rotate(180deg); transition: 0.3s" viewBox="0 0 1440 150" version="1.1" xmlns="http://www.w3.org/2000/svg"><defs><linearGradient id="sw-gradient-0" x1="0" x2="0" y1="1" y2="0"><stop stop-color="rgba(36, 5, 62, 1)" offset="0%"/><stop stop-color="rgba(36, 5, 62, 1)" offset="100%"/></linearGradient></defs><path style="transform:translate(0, 0px); opacity:1" fill="url(#sw-gradient-0)" d="M0,90L120,77.5C240,65,480,40,720,42.5C960,45,1200,75,1440,95C1680,115,1920,125,2160,120C2400,115,2640,95,2880,85C3120,75,3360,75,3600,75C3840,75,4080,75,4320,65C4560,55,4800,35,5040,30C5280,25,5520,35,5760,42.5C6000,50,6240,55,6480,60C6720,65,6960,70,7200,62.5C7440,55,7680,35,7920,42.5C8160,50,8400,85,8640,97.5C8880,110,9120,100,9360,92.5C9600,85,9840,80,10080,75C10320,70,10560,65,10800,62.5C11040,60,11280,60,11520,67.5C11760,75,12000,90,12240,90C12480,90,12720,75,12960,80C13200,85,13440,110,13680,122.5C13920,135,14160,135,14400,117.5C14640,100,14880,65,15120,65C15360,65,15600,100,15840,110C16080,120,16320,105,16560,87.5C16800,70,17040,50,17160,40L17280,30L17280,150L17160,150C17040,150,16800,150,16560,150C16320,150,16080,150,15840,150C15600,150,15360,150,15120,150C14880,150,14640,150,14400,150C14160,150,13920,150,13680,150C13440,150,13200,150,12960,150C12720,150,12480,150,12240,150C12000,150,11760,150,11520,150C11280,150,11040,150,10800,150C10560,150,10320,150,10080,150C9840,150,9600,150,9360,150C9120,150,8880,150,8640,150C8400,150,8160,150,7920,150C7680,150,7440,150,7200,150C6960,150,6720,150,6480,150C6240,150,6000,150,5760,150C5520,150,5280,150,5040,150C4800,150,4560,150,4320,150C4080,150,3840,150,3600,150C3360,150,3120,150,2880,150C2640,150,2400,150,2160,150C1920,150,1680,150,1440,150C1200,150,960,150,720,150C480,150,240,150,120,150L0,150Z"/></svg>