<?xml version="1.0" standalone="no"?>
<svg xmlns:xlink="http://www.w3.org/1999/xlink" id="wave" style="transform:rotate(180deg); transition: 0.3s" viewBox="0 0 1440 270" version="1.1" xmlns="http://www.w3.org/2000/svg"><defs><linearGradient id="sw-gradient-0" x1="0" x2="0" y1="1" y2="0"><stop stop-color="rgba(252.96, 249.9, 255, 1)" offset="0%"/><stop stop-color="rgba(252.96, 249.9, 255, 1)" offset="100%"/></linearGradient></defs><path style="transform:translate(0, 0px); opacity:1" fill="url(#sw-gradient-0)" d="M0,216L120,207C240,198,480,180,720,180C960,180,1200,198,1440,207C1680,216,1920,216,2160,211.5C2400,207,2640,198,2880,166.5C3120,135,3360,81,3600,67.5C3840,54,4080,81,4320,81C4560,81,4800,54,5040,67.5C5280,81,5520,135,5760,162C6000,189,6240,189,6480,157.5C6720,126,6960,63,7200,58.5C7440,54,7680,108,7920,144C8160,180,8400,198,8640,171C8880,144,9120,72,9360,45C9600,18,9840,36,10080,45C10320,54,10560,54,10800,76.5C11040,99,11280,144,11520,166.5C11760,189,12000,189,12240,171C12480,153,12720,117,12960,99C13200,81,13440,81,13680,94.5C13920,108,14160,135,14400,157.5C14640,180,14880,198,15120,184.5C15360,171,15600,126,15840,99C16080,72,16320,63,16560,54C16800,45,17040,36,17160,31.5L17280,27L17280,270L17160,270C17040,270,16800,270,16560,270C16320,270,16080,270,15840,270C15600,270,15360,270,15120,270C14880,270,14640,270,14400,270C14160,270,13920,270,13680,270C13440,270,13200,270,12960,270C12720,270,12480,270,12240,270C12000,270,11760,270,11520,270C11280,270,11040,270,10800,270C10560,270,10320,270,10080,270C9840,270,9600,270,9360,270C9120,270,8880,270,8640,270C8400,270,8160,270,7920,270C7680,270,7440,270,7200,270C6960,270,6720,270,6480,270C6240,270,6000,270,5760,270C5520,270,5280,270,5040,270C4800,270,4560,270,4320,270C4080,270,3840,270,3600,270C3360,270,3120,270,2880,270C2640,270,2400,270,2160,270C1920,270,1680,270,1440,270C1200,270,960,270,720,270C480,270,240,270,120,270L0,270Z"/></svg>